REM MD5 53c14b16cb5164231a919258f6ff17f2
FILE "World Cup Golf - In Hyatt Dorado Beach (Japan).bin" BINARY
  TRACK 01 MODE2/2352
    INDEX 01 00:00:00
  TRACK 02 AUDIO
    INDEX 00 58:39:67
    INDEX 01 58:41:67
  TRACK 03 AUDIO
    INDEX 00 61:29:16
    INDEX 01 61:31:16
REM LEADOUT 64:39:61
